<svg xmlns="http://www.w3.org/2000/svg" width="500" height="500"><path fill="#D3D3D3" d="M211.25 66.688C218.19 72.265 220.977 78.583 223 87l3.71-.02q17.472-.092 34.944-.135c5.985-.016 11.97-.037 17.956-.071 5.797-.033 11.594-.05 17.39-.059q3.287-.008 6.572-.032c55.848-.402 104.465 17.457 144.803 56.442C460.644 155.817 470.672 170.493 479 186l1.805 3.29c13.283 25.208 19.227 53.46 19.507 81.773l.054 3.535c-.01 11.365-.01 11.365-3.366 16.402-6.981 6.338-16.609 9.738-25.125 13.563l-4.682 2.122c-13.08 5.906-26.296 11.467-39.552 16.964-25.353 10.529-50.344 21.893-75.261 33.408-15.169 7.008-30.345 13.865-45.828 20.157-12.989 5.308-25.793 11.026-38.615 16.722l-5.535 2.459-2.728 1.211c-7.659 3.398-15.35 6.716-23.049 10.019-10.359 4.453-20.616 9.096-30.85 13.828-22.26 10.292-44.589 20.13-67.587 28.672l-2.306.857q-3.261 1.206-6.527 2.4l-1.94.716c-7.635 2.772-14.474 4.283-22.54 4.652l-2.668.168-2.59.129-2.325.12c-2.728-.199-4.783-1.113-7.292-2.167-.922-13.989-.962-27.755-.339-41.757.26-5.88.486-11.76.713-17.641l.147-3.775c.351-9.229.621-18.458.842-27.69l.049-2.047q.247-10.45.466-20.903a8572 8572 0 0 1 .28-12.835c.228-9.979.592-19.944 1.063-29.914.813-17.231 1.357-34.448 1.408-51.7l.008-2.014c.094-33.698-2.122-61.13-26.64-86.014C56.715 149.792 44.31 140.302 31 132l-3.338.99c-5.56 1.533-10.548 1.318-15.904-.931C6.006 128.77 2.12 124.364 0 118c-.666-7.465-.684-12.995 4-19 4.883-4.987 9.204-8.009 16.313-8.312 6.003.198 10.462 1.23 14.93 5.41C41.148 102.56 42.122 106.463 42 115l3.586 1.078c4.267 1.42 8.323 3.189 12.39 5.094l1.876.873a777 777 0 0 1 7.724 3.641 463 463 0 0 0 5.713 2.673l3.397 1.609c7.198 2.242 13.254-.964 19.779-3.87l2.736-1.194c2.916-1.273 5.826-2.557 8.737-3.841a8676 8676 0 0 1 8.96-3.913l5.896-2.576q11.428-4.995 22.956-9.761l2.949-1.221q3.15-1.3 6.301-2.592l.078-2.93c.54-12.382 2.678-20.687 11.41-29.867 12.985-11.389 30.874-10.922 44.762-1.516m-38.832 16.374C168.984 87.756 169.483 93.452 170 99c1.562 6.184 5.195 9.642 10.57 12.867 5.243 2.445 10.037 2.836 15.555 1.07 5.715-2.532 10.373-5.993 12.813-11.874C210.998 94.33 210.282 89.224 207 83c-3.165-4.448-5.77-7.289-11-9-10.813-1.07-16.529.841-23.582 9.063m-19.898 32.581-2.744 1.165-2.964 1.294-3.069 1.313a2555 2555 0 0 0-9.743 4.21q-3.236 1.39-6.473 2.777C117.973 130.507 108.453 134.668 99 139c1.381 2.762 2.932 3.066 5.75 4.25l2.61 1.14c3.302.763 4.658.12 7.64-1.39 5.157-2.4 7.429-3.23 12.918-1.773 4.072.435 6.272-.069 9.41-2.577 3.674-3.318 7.013-6.944 10.36-10.588q1.8-1.89 3.607-3.771A659 659 0 0 0 160 115c-3.556-1.185-4.149-.792-7.48.643m52.218 7.85C202 125 202 125 196 127v54h98c-4.245-4.257-4.245-4.257-8.758-8.059l-2.114-1.646-2.253-1.732-2.391-1.85c-6.32-4.867-12.725-9.61-19.162-14.318-6.02-4.41-11.962-8.917-17.885-13.458-6.834-5.232-13.714-10.39-20.687-15.437l-2.33-1.692-2.123-1.527-1.864-1.342c-3.338-2.188-6.757 1.708-9.695 3.553m-46.962 9.92a294 294 0 0 1-4.074 3.87c-7.805 6.796-7.805 6.796-12.466 15.687.323 3.038.916 4.6 2.764 7.03 3.062 2.413 6.372 3.631 10 5q3.538 1.548 7.066 3.113 2.796 1.202 5.596 2.391 2.895 1.233 5.785 2.475c5.149 2.693 5.149 2.693 10.553 4.021v-50c-14.841-6.746-15.093-3.472-25.224 6.414M53 134a184 184 0 0 0 12.246 13.309l1.74 1.728c2.423 2.407 4.852 4.807 7.28 7.208q2.68 2.654 5.355 5.314l1.725 1.713c3.6 3.6 7.012 7.292 10.209 11.26 1.658 1.684 3.291 2.526 5.445 3.468 6.802-5.429 6.802-5.429 10.934-12.867.078-3.346-.305-5.202-1.934-8.133-3.462-2.784-7.315-4.313-11.403-5.94-4.315-1.762-8.547-3.71-12.797-5.625a1655 1655 0 0 0-13.763-6.093 413 413 0 0 1-5.757-2.594l-2.417-1.111c-.681-.32-1.363-.638-2.065-.966-1.947-.846-1.947-.846-4.798-.671m65 20c-1.401 3.456-1.099 4.755.313 8.25 1.4 2.827 1.4 2.827 3.687 3.75 3.542.385 5.363.42 8.375-1.562 2.248-3.373 2.193-5.463 1.625-9.438-1.48-2.563-1.48-2.563-4-4-4.33-.631-6.972-.252-10 3m17.25 20c-3.915 2.444-7.05 1.962-11.562 1.625-4.655-.157-6.964-.089-10.918 2.445-2.627 2.542-4.874 4.802-6.77 7.93.379 3.157 1.427 4.804 3.652 7.016l1.604 1.601 1.681 1.633 1.67 1.68c2.699 3.06 2.699 3.06 6.393 4.07v2c1.371 1.389 1.371 1.389 3.229 2.858 5.42 4.614 10.392 9.65 15.402 14.697q2.612 2.632 5.232 5.257 5.54 5.56 11.075 11.125 6.452 6.49 12.913 12.97 2.582 2.594 5.16 5.192l3.137 3.147 2.773 2.789c1.723 2.08 1.723 2.08 3.079 1.965v-73c-20.86-12.95-20.86-12.95-47.75-17M196 194q-.035 30.875-.052 61.75-.007 14.335-.023 28.67-.015 12.489-.02 24.979 0 6.617-.01 13.234a6241 6241 0 0 0-.008 12.442q0 2.29-.006 4.58-.006 3.114-.001 6.226l-.003 3.528c-.171 2.52-.171 2.52 1.123 3.591 1.518.102 3.04.135 4.562.14l2.989.018 3.308.003 3.465.015q5.713.021 11.426.027l5.937.013q8.292.018 16.584.023 10.671.007 21.343.05 8.272.034 16.543.034 4.926 0 9.853.025c19.058.09 36.31-.43 53.99-8.348l2.672-1.152c6.572-3.031 11.824-7.199 17.328-11.848l3.063-2.25c14.876-12.649 21.987-33 23.937-51.75 1.593-20.024-5.606-40.514-18.375-55.75-13.356-15.413-30.24-25.485-50.625-28.25-4.367-.257-8.717-.254-13.09-.227h-3.818c-3.419-.002-6.837.01-10.256.024-3.586.013-7.172.014-10.758.016q-10.162.011-20.325.043c-7.72.022-15.439.033-23.158.043q-23.798.033-47.595.101"/><path fill="#A3A3A3" d="M75 69c4.397 1.743 7.095 4.472 9.063 8.75C85.49 82.44 84.897 86.522 83 91c-3.087 3.819-6.212 6.564-11.148 7.336-5.47.096-8.548-.647-12.852-4.336-2.902-3.303-3.916-5.882-4.25-10.312.363-5.352 1.831-8.407 5.813-12C65.28 68.42 69.352 68.273 75 69m73 35 2 1-1 4h2l-.062 2.875c-.164 3.032-.164 3.032 1.062 5.125q-6.318 2.822-12.653 5.61-2.154.95-4.303 1.911c-2.06.92-4.123 1.828-6.189 2.733l-1.941.877c-4.572 1.983-4.572 1.983-7.914.869h2v-4l3-2c-.572-3.317-1.57-4.726-4-7q5.92-2.605 11.853-5.182 2.019-.88 4.033-1.766a930 930 0 0 1 5.794-2.525l3.523-1.539z"/><path fill="#A2A2A2" d="M122 75c3.329 2.198 5.502 3.754 7 7.5 0 4.385-1.206 6.684-4.25 9.813-3.323 2.038-4.916 2.326-8.75 1.687-2.7-1.8-4.542-3.084-6-6-.346-3.012-.583-5.094 0-8 3.62-4.138 6.477-6.15 12-5"/><path fill="#9B9B9B" d="M41 141c3.414 1.2 5.565 2.333 8 5l2 1 1 3 2 1 1-2 3 3h-2v2l3 1 1 3 2 1 1-2 3 3-2 1 3 2 1 3 3 2 1 2h4v4h5l2 5-3 2a19832 19832 0 0 1-16.663-16.608q-2.835-2.829-5.674-5.654-4.069-4.051-8.132-8.11l-2.585-2.569-2.366-2.365-2.1-2.093C41 142 41 142 41 141"/><path fill="#9D9D9D" d="M43 41c2.063 2.188 2.063 2.188 3 5-.812 3.174-1.682 4.682-4 7-3.5-.187-3.5-.187-7-1-2.155-3.233-2.469-4.252-2-8 2.335-3.983 5.78-3.603 10-3"/><path fill="#989898" d="M50 132c3.2 1.067 3.762 1.629 5.782 4.15 3.051 3.69 6.311 7.072 9.71 10.44l1.79 1.786q2.794 2.784 5.593 5.561l3.82 3.807Q81.345 162.376 86 167l-1 2-3-1-1 2c-2-3-2-3-2.312-5.437-.934-3.478-2.794-4.56-5.688-6.563l-2 1-.187-2.25C69.758 153.181 68 152.078 65 150l-2 1-1-5-1.875-.375c-4.717-1.387-6.81-6.599-9.125-10.625z"/><path fill="#A1A1A1" d="M164 113c-1.127 2.255-2.38 4.068-4 6l-3 1-2 3 1 2-2.312.313c-2.905.742-3.978 1.257-5.688 3.687v4h-2v-2l-2-1 15-15-2-2c2.667-1.333 4.167-.671 7 0m-21 18c2 2 2 2 2 4l-5 2v4c-1.875.625-1.875.625-4 1l-2-2z"/><path fill="#A0A0A0" d="m163 121 1.813.5c2.3.611 2.3.611 5.187.5-5.826 7.158-12.438 13.526-19 20l-1-3 2-1c.685-1.888.685-1.888 1.125-4.062l.508-2.223L154 130l1.898.563c2.109.69 2.109.69 3.727-.563 1.928-2.805 2.57-5.719 3.375-9"/><path fill="#A1A1A1" d="m101 124 2 1-1 2-2.375.438c-2.948.631-3.61 1.455-5.625 3.562h-3l-2 2-2-1-1 3-4-1-1 2-2-2-2 1-1-5 3.445.719c5.175.647 8.816-1.042 13.43-3.219A196 196 0 0 1 101 124"/><path fill="#949494" d="M207 64c1.77 1.637 1.77 1.637 3 3-2.812.625-2.812.625-6 1l-3-2v-2c-2.39-1.106-2.39-1.106-5-2l-2 1v-2q-2.407.212-4.812.438l-2.708.246c-2.607.25-2.607.25-5.48 1.316l-2-2c9.195-2.786 19.717-1.866 28 3"/><path fill="#B0B0B0" d="M123 205c5.29 4.408 10.188 9.076 15 14l-2 4-.312-1.812c-.822-2.613-1.47-3.582-3.688-5.188-3.108-.727-3.108-.727-6-1l1-4-5-4z"/><path fill="#9D9D9D" d="m16 93-2.312 1.313c-2.638 1.517-2.638 1.517-4.313 3.312C8 99 8 99 5 100c-1.13 2.804-1.13 2.804-2 6a306 306 0 0 1-2 5H0c0-6.963 2.208-10.07 6.895-15.117 4.82-4.311 4.82-4.311 9.105-2.883"/><path fill="#A6A6A6" d="m107 169 3 3c-3.91 3.309-7.845 5-13 5a488 488 0 0 1 3.313-3.437c.614-.639 1.23-1.277 1.863-1.934C104 170 104 170 107 169"/><path fill="#9E9E9E" d="m209 87 2 1v4l2 1c-.523 2.763-1.109 5.326-2 8l2 1-6 3 1-3.375c1.244-4.89 1.185-9.61 1-14.625"/><path fill="#A2A2A2" d="M176 109c4.75 1.875 4.75 1.875 7 3l-1 5-4 1z"/><path fill="#A8A8A8" d="M147 162c4.389.665 7.981 2.188 12 4-3.386 1.042-6.467 1.23-10 1l-2-2z"/><path fill="#A1A1A1" d="M90 144c4.875 3.5 4.875 3.5 6 8l-9-3z"/><path fill="#9A9A9A" d="m101 124 2 1-1 2-2.375.438c-2.669.299-2.669.299-4 2.124-2.61 2.31-5.294 1.627-8.625 1.438 2.46-2.46 4.796-3.344 8-4.687l3.25-1.387z"/><path fill="#9F9F9F" d="M34 96c2.908 2.22 4.953 3.93 7 7l-1 3-1-2-2.5-.812L34 102c-.875-2.562-.875-2.562-1-5z"/><path fill="#9E9E9E" d="m163 72 3 3c-1 2-1 2-4 4a180 180 0 0 0-4 4c.531-4.515 2.366-7.347 5-11"/><path fill="#ABABAB" d="M152 177h10l1 5q-2.19-.676-4.375-1.375l-2.46-.773C154 179 154 179 152 177"/><path fill="#ABACAB" d="m338 89 11 1c-4.183 3.137-4.354 3-9 3v-2h-2z"/><path fill="#B2B2B2" d="M195 169h1v12l3 1-5 1a88 88 0 0 1-1-5l1-1c.23-1.347.412-2.704.563-4.062z"/><path fill="#979797" d="M31 131c3 0 3 0 5.063 1.938L38 135l2 1c.625 2.563.625 2.563 1 5-7.483-6.15-7.483-6.15-10-10"/><path fill="#A3A3A3" d="M127 140h4l-1 4h-2l-1 3c-1-1-1-1-1.125-3.5C126 141 126 141 127 140"/><path fill="#A4A4A4" d="m199 111 1 2-4 6-2-2 1-2-3-2z"/><path fill="#9B9B9B" d="M81 181c2.938.75 2.938.75 6 2 .75 2.063.75 2.063 1 4l2 1c-3 0-3 0-4.605-1.531l-1.582-1.969-1.606-1.969z"/><path fill="#A2A2A2" d="M140 151h3l1 9h-3l1-5-2-1z"/><path fill="#9F9F9F" d="M113 121c-1.375 1.5-1.375 1.5-3 3h-2q-2.007.47-4 1l-1-2c6.625-3.125 6.625-3.125 10-2"/><path fill="#A1A1A1" d="M201 64c5.538-.37 5.538-.37 7.875 1.5L210 67c-2.812.625-2.812.625-6 1l-3-2z"/><path fill="#AEAEAE" d="M255 145v5c-2.884-1.293-4.872-2.66-7-5 4.75-1.125 4.75-1.125 7 0"/><path fill="#A8A8A8" d="m78 174 4 1 1 4-4-1z"/></svg>